<?xml version="1.0" standalone="no"?><!DOCTYPE svg PUBLIC "-//W3C//DTD SVG 1.1//EN" "http://www.w3.org/Graphics/SVG/1.1/DTD/svg11.dtd"><svg t="1699973931386" class="icon" viewBox="0 0 1024 1024" version="1.1" xmlns="http://www.w3.org/2000/svg" p-id="4217" xmlns:xlink="http://www.w3.org/1999/xlink" width="200" height="200"><path d="M405.173796 853.400507a21.324937 21.324937 0 0 1-20.25869-14.671557C381.076618 827.341434 370.883298 810.750634 362.523923 810.750634a21.324937 21.324937 0 1 1 0-42.649874c42.863123 0 60.989319 51.478397 62.908563 57.32143A21.324937 21.324937 0 0 1 405.173796 853.400507zM447.823669 661.476077a21.324937 21.324937 0 0 1-21.324936-21.324937c0-20.386639 13.39206-46.232463 26.400271-71.310588 6.226881-11.984614 15.652503-30.15346 16.292252-35.783243 0.0853-22.902982 0.426499-83.9776-34.290498-110.548472-27.210619-20.770488-36.849491-43.502871-44.654417-61.799666l-4.392937-10.06537C364.400517 304.709887 361.713575 298.952154 319.87405 298.952154a21.324937 21.324937 0 1 1 0-42.649873c69.007495 0 82.186306 28.191566 103.980391 74.935827 2.345743 5.075335 4.009088 8.871174 5.629783 12.794962 6.994579 16.462851 13.008211 30.665259 31.262357 44.611768 51.606347 39.451133 51.179848 116.476804 51.051898 141.810828 0 16.71875-8.018176 32.840402-21.069037 58.003828-8.572625 16.633451-21.580836 41.754226-21.580836 51.691646a21.324937 21.324937 0 0 1-21.324937 21.324937z" p-id="4218"></path><path d="M298.549113 298.952154C92.081076 298.952154 58.259727 110.439714 45.550065 39.470325l-2.516343-13.647959a21.324937 21.324937 0 0 1 40.645329-12.240514C133.024955 132.276449 307.846785 171.002534 362.523923 171.002534a21.324937 21.324937 0 0 1 0 42.649874c-36.721541 0-166.931604-19.149793-254.150595-95.919565C132.342557 185.716741 181.987009 256.302281 298.549113 256.302281a21.324937 21.324937 0 0 1 0 42.649873z" p-id="4219"></path><path d="M234.574303 469.551647C132.854355 469.551647 13.818559 383.825402 8.785874 380.157513a21.324937 21.324937 0 0 1-5.459184-28.660715c64.571908-102.061147 173.584984-98.435908 245.535321-95.876915 10.10802 0.383849 19.661592 0.682398 28.362165 0.682398a21.324937 21.324937 0 0 1 0 42.649873 844.467491 844.467491 0 0 1-29.812261-0.682398c-64.614558-2.217793-143.687423-4.862086-195.976168 59.240674C86.493943 380.029563 167.528702 426.901774 234.574303 426.901774a21.324937 21.324937 0 0 1 0 42.649873z" p-id="4220"></path><path d="M725.047846 768.10076a21.239637 21.239637 0 0 1-20.642539-16.164302l-21.324937-85.299746A19.064493 19.064493 0 0 1 682.397972 661.476077c0-49.175304 27.295919-81.205359 51.393098-109.439575 18.211496-21.282287 33.906649-39.664382 33.906649-61.159918 0-26.656171-9.169723-41.839526-19.746891-59.496573C737.20306 413.595014 725.047846 393.421624 725.047846 362.926964 725.047846 267.732447 613.390477 171.002534 533.123416 171.002534h-42.649873C410.206481 171.002534 298.549113 267.732447 298.549113 362.926964c0 30.494659-12.155214 50.668049-22.902982 68.453047-10.577169 17.657048-19.746891 32.883052-19.746891 59.496573 0 21.452886 15.695153 39.877632 33.906649 61.159918C313.903067 580.313368 341.198986 612.300773 341.198986 661.476077a20.898438 20.898438 0 0 1-0.639748 5.160635l-21.324937 85.299746a21.324937 21.324937 0 1 1-41.370377-10.321269l20.642539-82.612805c-0.938297-32.158004-20.471939-55.060986-41.157128-79.243464C235.6832 554.339595 213.249366 528.109923 213.249366 490.876584c0-38.470186 14.330357-62.311465 25.888473-81.461258 9.382972-15.524554 16.7614-27.850367 16.761401-46.488362C255.89924 242.099873 388.071197 128.352661 490.473543 128.352661h42.649873C635.525762 128.352661 767.697719 242.099873 767.697719 362.926964c0 18.637995 7.378428 30.921158 16.7614 46.488362 11.558116 19.149793 25.888473 42.991072 25.888473 81.461258 0 37.190689-22.433833 63.463011-44.099969 88.839686-20.642539 24.182478-40.176181 47.08546-41.157127 79.243465l20.642538 82.612804A21.324937 21.324937 0 0 1 725.047846 768.10076z" p-id="4221"></path><path d="M618.423163 938.700253c-29.854911 0-48.535556-13.775909-63.548312-24.822226-13.56266-9.93742-24.225128-17.827647-43.076372-17.827647s-29.513712 7.890227-43.076372 17.827647c-15.012755 11.088967-33.6934 24.822226-63.548311 24.822226C275.304932 938.700253 255.89924 871.910552 255.89924 832.07557c0-108.032129 61.543767-122.191887 102.274396-131.574859 13.647959-3.156091 26.570871-6.098932 31.902105-11.472816 7.506378-7.506378 13.178811-17.358498 19.192443-27.722417C425.645735 632.900662 446.032375 597.501267 511.798479 597.501267s86.152744 35.399395 102.530296 63.804211c6.013632 10.406569 11.686065 20.21604 19.192443 27.722417 5.331234 5.331234 18.254146 8.316725 31.902105 11.472816 40.730629 9.382972 102.274396 23.54273 102.274396 131.574859 0 39.834982-19.405692 106.624683-149.274556 106.624683zM511.798479 853.400507c32.840402 0 52.501994 14.500957 68.367747 26.144372 13.008211 9.596221 22.391183 16.505501 38.256937 16.505501 70.75614 0 106.624683-21.538186 106.624683-63.97481 0-74.08283-30.537309-81.120059-69.220745-89.991232-18.893894-4.350287-38.470186-8.871174-52.501994-22.860332-11.515466-11.472816-19.192443-24.822226-25.973772-36.593592-14.714206-25.589924-24.481027-42.479274-65.552856-42.479274s-50.838649 16.88935-65.595505 42.479274c-6.78133 11.771365-14.458307 25.120775-25.973773 36.593592-14.031808 14.031808-33.6081 18.510045-52.501994 22.860332C329.086422 750.998161 298.549113 757.99274 298.549113 832.07557c0 42.479274 35.868543 63.97481 106.624683 63.97481 15.865753 0 25.248725-6.951929 38.256936-16.505501C459.296485 867.901464 478.958077 853.400507 511.798479 853.400507z" p-id="4222"></path><path d="M511.798479 1024c-81.077409 0-115.410557-38.001037-145.691967-71.523837a507.021694 507.021694 0 0 0-18.680644-20.002791 21.324937 21.324937 0 0 1 30.15346-30.15346c7.079879 7.079879 13.690609 14.373007 20.17339 21.580835C426.754632 956.016102 449.657614 981.350127 511.798479 981.350127s85.043847-25.376675 114.003112-57.492029c6.482781-7.207829 13.093511-14.500957 20.17339-21.580836a21.324937 21.324937 0 0 1 30.15346 30.15346c-6.56808 6.56808-12.667012 13.34941-18.680644 20.002791C627.209036 985.998963 592.875888 1024 511.798479 1024zM618.423163 853.400507a21.282287 21.282287 0 0 1-20.25869-27.978317c1.919244-5.843033 20.04544-57.32143 62.908563-57.32143a21.324937 21.324937 0 0 1 0 42.649874c-8.785874 0-19.107143 17.912947-22.391184 27.978316A21.324937 21.324937 0 0 1 618.423163 853.400507zM725.047846 298.952154a21.324937 21.324937 0 0 1 0-42.649873c116.562104 0 166.206556-70.58554 190.175785-138.569438C828.00464 194.502615 697.794577 213.652408 661.073036 213.652408a21.324937 21.324937 0 1 1 0-42.649874c54.677138 0 229.498968-38.768735 278.844871-157.463332a21.324937 21.324937 0 0 1 40.60268 12.240514l-2.516343 13.647959C965.337232 110.439714 931.515882 298.952154 725.047846 298.952154z" p-id="4223"></path><path d="M789.022656 469.551647a21.324937 21.324937 0 0 1 0-42.649873c67.045601 0 148.08036-46.872211 183.138556-69.391344-52.331395-64.145409-131.489559-61.543767-195.976168-59.240674A844.467491 844.467491 0 0 1 746.372782 298.952154a21.324937 21.324937 0 1 1 0-42.649873c8.700574 0 18.254146-0.341199 28.404816-0.682398 71.865036-2.686942 180.963412-6.184232 245.53532 95.876915a21.324937 21.324937 0 0 1-5.459183 28.660715C1009.7784 383.825402 890.742603 469.551647 789.022656 469.551647zM362.523923 554.851394a64.01746 64.01746 0 0 1 0-127.94962c35.271445 0 63.97481 28.703365 63.97481 63.97481S397.795368 554.851394 362.523923 554.851394z m0-85.299747a21.324937 21.324937 0 1 0 0.0853 42.735173A21.324937 21.324937 0 0 0 362.523923 469.551647zM661.073036 554.851394c-35.271445 0-63.97481-28.703365-63.97481-63.97481s28.703365-63.97481 63.97481-63.97481 63.97481 28.703365 63.97481 63.97481-28.703365 63.97481-63.97481 63.97481z m0-85.299747a21.324937 21.324937 0 1 0 0 42.649874 21.324937 21.324937 0 0 0 0-42.649874z" p-id="4224"></path></svg>